<?xml version="1.0" encoding="UTF-8"?>
<svg id="Layer_1" data-name="Layer 1" xmlns="http://www.w3.org/2000/svg" viewBox="0 0 604.92 154.61">
  <defs>
    <style>
      .cls-1 {
        fill: currentColor;
        stroke-width: 0px;
      }
    </style>
  </defs>
  <g>
    <path class="cls-1" d="M59.14,44.81L0,1.84v8.52l55.21,40.11c1.19-1.97,2.5-3.87,3.93-5.67Z"/>
    <path class="cls-1" d="M72.28,32.82L49.6,1.62h-8.52l25.66,35.32c1.75-1.48,3.6-2.86,5.53-4.12Z"/>
    <path class="cls-1" d="M88.62,25.67l-7.82-24.06h-7.25l8.5,26.16c2.13-.84,4.32-1.54,6.56-2.11Z"/>
    <path class="cls-1" d="M106.38,24.2V1.62h-7.01v22.58c1.16-.09,2.33-.14,3.5-.16,1.18.02,2.35.07,3.5.16Z"/>
    <path class="cls-1" d="M164.68,1.62h-8.52l-22.67,31.21c1.93,1.26,3.78,2.63,5.53,4.12L164.68,1.62Z"/>
    <path class="cls-1" d="M132.21,1.62h-7.25l-7.82,24.06c2.25.57,4.44,1.27,6.56,2.11l8.5-26.16Z"/>
    <path class="cls-1" d="M50.57,60.25L0,43.82v7.25l48.66,15.81c.5-2.27,1.14-4.48,1.91-6.63Z"/>
    <path class="cls-1" d="M157.1,66.88l48.66-15.81v-7.25l-50.57,16.43c.77,2.15,1.41,4.36,1.91,6.63Z"/>
    <path class="cls-1" d="M189.43,139.48h-22.98c-1.9,0-3.45-1.54-3.45-3.45h0c0-1.9,1.54-3.45,3.45-3.45h11.49c1.9,0,3.45-1.54,3.45-3.45v-6.89c0-1.9-1.54-3.45-3.45-3.45h-24.13c-1.9,0-3.45-1.54-3.45-3.45h0c0-1.9,1.54-3.45,3.45-3.45h14.36c1.9,0,3.45-1.54,3.45-3.45h0c0-1.9-1.54-3.45-3.45-3.45h-25.85c-1.9,0-3.45-1.54-3.45-3.45h0c0-1.9,1.54-3.45,3.45-3.45h4.6c1.9,0,3.45-1.54,3.45-3.45v-3.45H55.39s0,3.45,0,3.45c0,1.9,1.54,3.45,3.45,3.45h4.6c1.9,0,3.45,1.54,3.45,3.45h0c0,1.9-1.54,3.45-3.45,3.45h-25.85c-1.9,0-3.45,1.54-3.45,3.45h0c0,1.9,1.54,3.45,3.45,3.45h14.36c1.9,0,3.45,1.54,3.45,3.45h0c0,1.9-1.54,3.45-3.45,3.45h-24.13c-1.9,0-3.45,1.54-3.45,3.45v6.89c0,1.9,1.54,3.45,3.45,3.45h11.49c1.9,0,3.45,1.54,3.45,3.45h0c0,1.9-1.54,3.45-3.45,3.45h-22.98c-1.9,0-3.45,1.54-3.45,3.45h0c0,1.9-1.54,3.45-3.45,3.45H3.93c-1.9,0-3.45,1.54-3.45,3.45v3.45h204.79v-3.45c0-1.9-1.54-3.45-3.45-3.45h-5.5c-1.9,0-3.45-1.54-3.45-3.45h0c0-1.9-1.54-3.45-3.45-3.45Z"/>
    <path class="cls-1" d="M150.55,50.47l55.21-40.11V1.84l-59.14,42.97c1.42,1.8,2.74,3.69,3.93,5.67Z"/>
    <path class="cls-1" d="M102.88,30.91c-25.95,0-47.04,20.73-47.65,46.53H.49v6.89h204.79v-6.89h-54.74c-.61-25.8-21.7-46.53-47.65-46.53Z"/>
  </g>
  <g>
    <path class="cls-1" d="M241.67,1.53c.92,0,1.53.71,1.53,1.53v67.26c0,.71-.61,1.42-1.53,1.42h-18.01c-.71,0-1.42-.71-1.42-1.42V3.05c0-.81.71-1.53,1.42-1.53h18.01Z"/>
    <path class="cls-1" d="M258.15,50.37c.31-1.02,1.02-1.32,1.83-.81,4.68,2.65,10.28,4.58,14.14,4.88,3.26,0,5.39-1.53,5.39-3.87,0-6-28.59-5.7-28.59-27.88,0-13.63,10.28-22.69,25.74-22.69,7.22,0,16.38,2.95,22.79,7.33.81.51,1.12,1.32.81,1.83l-6.41,14.35c-.31,1.02-1.02,1.32-1.83.81-4.99-2.85-10.79-4.99-14.35-5.29-3.15,0-5.19,1.42-5.19,3.66,0,6,28.8,5.6,28.8,27.98,0,13.53-10.48,22.59-26.15,22.59-8.55,0-17.5-2.65-22.59-6.72-.81-.61-1.12-1.32-.81-1.83l6.41-14.35Z"/>
    <path class="cls-1" d="M349.02,53.42c.71,0,1.32.61,1.32,1.42l-1.42,15.47c-.1.71-.81,1.42-1.63,1.42h-36.73c-.81,0-1.53-.71-1.53-1.42V3.05c0-.81.71-1.53,1.53-1.53h18.01c.81,0,1.53.71,1.53,1.53v50.37h18.93Z"/>
    <path class="cls-1" d="M425.02,70.41c.31.61-.1,1.32-.92,1.32h-20.15c-.92,0-1.73-.51-2.14-1.32l-3.05-10.68h-19.13l-3.05,10.68c-.41.81-1.22,1.32-2.14,1.32h-20.15c-.81,0-1.22-.71-.92-1.32L376.39,2.85c.31-.61,1.42-1.32,2.44-1.32h20.76c1.02,0,2.14.71,2.44,1.32l23,67.56ZM389.21,25.84l-5.49,19.33h10.99l-5.49-19.33Z"/>
    <path class="cls-1" d="M487.5,1.53c.92,0,1.53.71,1.53,1.53v67.26c0,.71-.61,1.42-1.53,1.42h-17.6c-.71,0-1.63-.51-2.14-1.32l-17.7-31.64v31.54c0,.71-.61,1.42-1.53,1.42h-18.01c-.81,0-1.42-.71-1.42-1.42V3.05c0-.81.61-1.53,1.42-1.53h17.6c.92,0,1.93.51,2.34,1.32l17.6,31.64V3.05c0-.81.71-1.53,1.42-1.53h18.01Z"/>
    <path class="cls-1" d="M523.42,1.53c21.57,0,35.92,13.94,35.92,35.1s-14.35,35.1-35.92,35.1h-23.61c-.71,0-1.42-.71-1.42-1.53V3.05c0-.81.71-1.53,1.42-1.53h23.61ZM524.64,53.42c7.83,0,13.13-6.72,13.13-16.79s-5.29-16.79-13.13-16.79h-5.29v33.58h5.29Z"/>
    <path class="cls-1" d="M254.29,82.87c13.33,0,22.18,7.94,22.18,19.84,0,7.33-3.56,12.72-9.06,14.35,6.41,1.63,10.58,7.73,10.58,16.18,0,11.9-8.85,19.84-22.08,19.84h-32.26c-.81,0-1.42-.71-1.42-1.42v-67.26c0-.71.61-1.53,1.42-1.53h30.63ZM249.61,110.45c3.05,0,5.09-1.83,5.09-4.68s-2.04-4.68-5.09-4.68h-6.41v9.36h6.41ZM251.44,134.87c2.95,0,4.99-1.93,4.99-4.88s-2.04-4.88-4.99-4.88h-8.24v9.77h8.24Z"/>
    <path class="cls-1" d="M305.26,82.87c.92,0,1.53.71,1.53,1.53v67.26c0,.71-.61,1.42-1.53,1.42h-18.01c-.71,0-1.42-.71-1.42-1.42v-67.26c0-.81.71-1.53,1.42-1.53h18.01Z"/>
    <path class="cls-1" d="M370.69,82.87c.92,0,1.53.71,1.42,1.42l-1.53,15.47c-.1.81-.92,1.42-1.63,1.42h-15.16v50.47c0,.71-.61,1.42-1.42,1.42h-18.01c-.81,0-1.53-.71-1.53-1.42v-50.47h-16.89c-.71,0-1.42-.61-1.42-1.42v-15.36c0-.81.71-1.53,1.42-1.53h54.74Z"/>
    <path class="cls-1" d="M430.42,146.87c.31.71-.1,1.42-.92,1.83-5.9,3.66-13.84,5.9-21.37,5.9-20.96,0-35-14.65-35-36.63s14.04-36.63,35-36.63c7.53,0,15.47,2.24,21.37,5.9.81.41,1.22,1.12.92,1.83l-6.72,14.14c-.41.92-1.12,1.22-1.93.81-3.76-2.14-7.43-2.85-11.8-2.85-9.16,0-15.26,6.72-15.26,16.79s6.11,16.79,15.26,16.79c4.38,0,8.04-.71,11.8-2.85.81-.41,1.53-.1,1.93.81l6.72,14.14Z"/>
    <path class="cls-1" d="M470.1,154.5c-21.67,0-36.12-14.65-36.12-36.53s14.45-36.73,36.12-36.73,36.12,14.65,36.12,36.73-14.45,36.53-36.12,36.53ZM470.1,101.8c-8.34,0-13.94,6.51-13.94,16.18s5.6,16.18,13.94,16.18,13.94-6.51,13.94-16.18-5.6-16.18-13.94-16.18Z"/>
    <path class="cls-1" d="M534.1,82.87c.92,0,1.53.71,1.53,1.53v67.26c0,.71-.61,1.42-1.53,1.42h-18.01c-.71,0-1.42-.71-1.42-1.42v-67.26c0-.81.71-1.53,1.42-1.53h18.01Z"/>
    <path class="cls-1" d="M603.39,82.87c.92,0,1.53.71,1.53,1.53v67.26c0,.71-.61,1.42-1.53,1.42h-17.6c-.71,0-1.63-.51-2.14-1.32l-17.7-31.64v31.54c0,.71-.61,1.42-1.53,1.42h-18.01c-.81,0-1.42-.71-1.42-1.42v-67.26c0-.81.61-1.53,1.42-1.53h17.6c.92,0,1.93.51,2.34,1.32l17.6,31.64v-31.44c0-.81.71-1.53,1.42-1.53h18.01Z"/>
  </g>
</svg>
